<svg width="2" height="1" viewBox="0 0 2 1" fill="none" xmlns="http://www.w3.org/2000/svg">
<path d="M0.964355 0.507455L1.45472 0.817455V0.184364L0.964355 0.507455Z" fill="white"/>
<path d="M0 0.184364V0.817455L0.490364 0.507455L0 0.184364Z" fill="white"/>
<path d="M1.36384 0H0.0911116C0.0457479 0 0.00974788 0.0338182 0.00292969 0.0773637L0.727476 0.554728L1.45202 0.0773637C1.4452 0.0338182 1.4092 0 1.36384 0Z" fill="white"/>
<path d="M0.880931 0.562363L0.752294 0.647091C0.744658 0.652091 0.736022 0.654545 0.727294 0.654545C0.718567 0.654545 0.709931 0.652091 0.702294 0.647091L0.573658 0.562272L0.00292969 0.923273C0.0099297 0.966455 0.0457479 1 0.0909298 1H1.36366C1.40884 1 1.44466 0.966455 1.45166 0.923273L0.880931 0.562363Z" fill="white"/>
</svg>
